<?xml version="1.0" encoding="utf-8"?>
<!-- Generator: Adobe Illustrator 25.4.1, SVG Export Plug-In . SVG Version: 6.00 Build 0)  -->
<svg version="1.1" id="Layer_1" xmlns="http://www.w3.org/2000/svg" xmlns:xlink="http://www.w3.org/1999/xlink" x="0px" y="0px"
	 viewBox="0 0 1024 1024" style="enable-background:new 0 0 1024 1024;" xml:space="preserve">
<style type="text/css">
	.st0{fill:#FFFFFF;}
	.st1{opacity:0.45;fill:#806CF4;enable-background:new    ;}
	.st2{opacity:0.6;fill:#806CF4;enable-background:new    ;}
	.st3{opacity:0.8;fill:#806CF4;enable-background:new    ;}
</style>
<path class="st0" d="M21.6,512C21.6,55.9,55.9,21.6,512,21.6s490.4,34.3,490.4,490.4s-34.3,490.4-490.4,490.4S21.6,968.1,21.6,512"
	/>
<g>
	<path class="st1" d="M642.7,114.2L512,346.5H250.8l130.6-232.3H642.7"/>
	<path class="st2" d="M512,346.5h261.3L642.7,114.2H381.4L512,346.5z"/>
	<path class="st3" d="M381.4,578.7L512,346.5L381.4,114.2L250.8,346.5L381.4,578.7z"/>
	<path class="st1" d="M452.9,453.1L591.1,681L462.8,908.7L324.6,680.8L452.9,453.1"/>
	<path class="st2" d="M590.1,682l128.3-227.6l-266.5-0.3L323.6,681.8L590.1,682z"/>
	<path class="st3" d="M727.3,909.8L589.1,682l-266.5-0.3l138.2,227.9L727.3,909.8z"/>
</g>
</svg>
